<svg width="38" height="26" viewBox="0 0 38 26" fill="none" xmlns="http://www.w3.org/2000/svg">
<path d="M30.325 22.1448L20.3608 25.0248C18.8831 25.4362 17.2786 25.4362 15.7587 25.0248L5.79461 22.1448C5.45679 22.0626 5.20349 21.7333 5.20349 21.363V11.0363C5.20349 10.5014 5.75243 10.1312 6.259 10.2546L15.7587 13.0111C17.2365 13.4225 18.841 13.4225 20.3608 13.0111L29.8605 10.2546C30.4095 10.09 30.916 10.5014 30.916 11.0363V21.363C30.9159 21.7333 30.6628 22.0213 30.325 22.1448ZM35.7715 10.5015L34.1249 7.37469C33.9559 7.04549 33.5338 6.88105 33.1537 6.96326L20.3607 10.6661C18.883 11.0775 17.2786 11.0775 15.7587 10.6661L0.601675 6.26384C-0.200558 6.01702 -0.200558 4.94735 0.601675 4.74164L15.759 0.339399C17.2789 -0.113133 18.8412 -0.113133 20.3611 0.339399L37.4184 5.27649C37.8406 5.39998 38.0939 5.81141 37.9674 6.26394L36.8696 10.3782C36.7428 10.8718 36.0249 10.9542 35.7715 10.5015Z" fill="white"/>
</svg>
