<svg width="58" height="31" viewBox="0 0 58 31" fill="none" xmlns="http://www.w3.org/2000/svg">
<g filter="url(#filter0_ii_1_4461)">
<path d="M57.0547 15.5C57.0547 7.49187 50.5628 1 42.5547 1H15.4989C7.49075 1 0.998871 7.49187 0.998871 15.5C0.998871 23.5081 7.49074 30 15.4989 30H42.5547C50.5628 30 57.0547 23.5081 57.0547 15.5Z" fill="#1A1B1F"/>
<path d="M42.5547 0.757376C50.6968 0.757376 57.2973 7.35787 57.2973 15.5C57.2973 23.6421 50.6968 30.2426 42.5547 30.2426H15.4989C7.35674 30.2426 0.756248 23.6421 0.756248 15.5C0.756248 7.35787 7.35675 0.757376 15.4989 0.757376H42.5547Z" stroke="#27292F" stroke-width="0.485247"/>
<path d="M18.0006 13.1242H17.1854L22.7522 6.41619V22.4876H25.1512V23H18.1171V22.4876H20.3531V10.3059L18.0006 13.1242ZM28.2036 10.7019C27.893 11.3075 27.7377 11.9519 27.7377 12.6351C27.7377 13.3183 27.893 13.9705 28.2036 14.5916C28.5141 15.1972 29.0033 15.5 29.671 15.5C30.3387 15.5 30.8278 15.1972 31.1383 14.5916C31.4489 13.9705 31.6042 13.3183 31.6042 12.6351C31.6042 11.9519 31.4489 11.3075 31.1383 10.7019C30.8278 10.0808 30.3387 9.77022 29.671 9.77022C29.0033 9.77022 28.5141 10.0808 28.2036 10.7019ZM27.2952 15.0109C26.643 14.3432 26.3169 13.5513 26.3169 12.6351C26.3169 11.719 26.643 10.9348 27.2952 10.2826C27.9629 9.63047 28.747 9.30438 29.6477 9.30438C30.5638 9.30438 31.348 9.63047 32.0001 10.2826C32.6678 10.9348 33.0017 11.719 33.0017 12.6351C33.0017 13.5513 32.6756 14.3432 32.0234 15.0109C31.3713 15.6631 30.5871 15.9891 29.671 15.9891C28.7548 15.9891 27.9629 15.6631 27.2952 15.0109ZM34.7486 21.9984C34.0964 21.3307 33.7703 20.5388 33.7703 19.6227C33.7703 18.7065 34.0964 17.9224 34.7486 17.2702C35.4163 16.618 36.2004 16.2919 37.1011 16.2919C38.0172 16.2919 38.8014 16.618 39.4535 17.2702C40.1212 17.9224 40.4551 18.7065 40.4551 19.6227C40.4551 20.5388 40.129 21.3307 39.4768 21.9984C38.8247 22.6506 38.0405 22.9767 37.1244 22.9767C36.2082 22.9767 35.4163 22.6506 34.7486 21.9984ZM37.0778 9.14134H38.6616L29.4613 23.1165H27.8775L37.0778 9.14134ZM35.657 17.6895C35.3464 18.295 35.1911 18.9395 35.1911 19.6227C35.1911 20.3059 35.3464 20.9581 35.657 21.5792C35.9675 22.1848 36.4567 22.4876 37.1244 22.4876C37.7921 22.4876 38.2812 22.1848 38.5917 21.5792C38.9023 20.9581 39.0576 20.3059 39.0576 19.6227C39.0576 18.9395 38.9023 18.295 38.5917 17.6895C38.2812 17.0683 37.7921 16.7578 37.1244 16.7578C36.4567 16.7578 35.9675 17.0683 35.657 17.6895Z" fill="#FAFAFA"/>
</g>
<defs>
<filter id="filter0_ii_1_4461" x="-3.36837" y="0.514755" width="64.7903" height="33.8525" filterUnits="userSpaceOnUse" color-interpolation-filters="sRGB">
<feFlood flood-opacity="0" result="BackgroundImageFix"/>
<feBlend mode="normal" in="SourceGraphic" in2="BackgroundImageFix" result="shape"/>
<feColorMatrix in="SourceAlpha" type="matrix" values="0 0 0 0 0 0 0 0 0 0 0 0 0 0 0 0 0 0 127 0" result="hardAlpha"/>
<feOffset dx="3.88198" dy="3.88198"/>
<feGaussianBlur stdDeviation="2.91148"/>
<feComposite in2="hardAlpha" operator="arithmetic" k2="-1" k3="1"/>
<feColorMatrix type="matrix" values="0 0 0 0 0 0 0 0 0 0 0 0 0 0 0 0 0 0 0.25 0"/>
<feBlend mode="normal" in2="shape" result="effect1_innerShadow_1_4461"/>
<feColorMatrix in="SourceAlpha" type="matrix" values="0 0 0 0 0 0 0 0 0 0 0 0 0 0 0 0 0 0 127 0" result="hardAlpha"/>
<feOffset dx="-3.88198" dy="3.88198"/>
<feGaussianBlur stdDeviation="2.91148"/>
<feComposite in2="hardAlpha" operator="arithmetic" k2="-1" k3="1"/>
<feColorMatrix type="matrix" values="0 0 0 0 0 0 0 0 0 0 0 0 0 0 0 0 0 0 0.25 0"/>
<feBlend mode="normal" in2="effect1_innerShadow_1_4461" result="effect2_innerShadow_1_4461"/>
</filter>
</defs>
</svg>
