<svg width="28" height="39" viewBox="0 0 28 39" fill="none" xmlns="http://www.w3.org/2000/svg">
<g clip-path="url(#clip0_1_10811)">
<path d="M27.9181 26.1027C27.9181 23.9539 26.3555 22.0785 24.1354 21.5706L19.8593 20.6328L16.1178 30.166L14.9664 24.6961H15.0898C15.6244 24.6961 16.0766 24.2664 16.0766 23.7585V22.5473C16.0766 22.0393 15.6244 21.6095 15.0898 21.6095H12.8695C12.3349 21.6095 11.8827 22.0393 11.8827 22.5473V23.7585C11.8827 24.2664 12.3349 24.6961 12.8695 24.6961H12.9929L11.8416 30.166L8.1 20.6328L3.82391 21.5706C1.60361 22.0786 0.0412222 23.9539 0.0412222 26.1027L0 34.9324C0 36.4953 1.31565 37.7454 2.96029 37.7454H25.0397C26.6844 37.7454 28 36.4953 28 34.9324L27.9181 26.1027Z" fill="white"/>
<path d="M13.9816 19.734C19.5323 19.734 24.014 15.4755 24.014 10.201C24.014 4.92659 19.5323 0.628906 13.9816 0.628906C8.43089 0.628906 3.94922 4.88752 3.94922 10.1619C3.94922 15.4364 8.43089 19.734 13.9816 19.734ZM10.1989 13.561L11.1857 12.428C11.2679 12.3107 11.4324 12.3107 11.5147 12.3889C11.9257 12.7015 12.3369 12.9359 12.7481 13.1313C13.2414 13.3267 13.7349 13.4439 14.1871 13.4439C14.5983 13.4439 14.9272 13.3659 15.1328 13.1705C15.3795 13.0142 15.5029 12.7797 15.5029 12.4671C15.5029 12.3499 15.5029 12.2718 15.4619 12.1545C15.4208 12.0764 15.3796 11.9592 15.3385 11.8811C15.2563 11.803 15.215 11.7248 15.0918 11.6857C15.0096 11.6076 14.8862 11.5685 14.7628 11.4904C14.6394 11.4123 14.4751 11.3731 14.3105 11.295C14.146 11.2169 13.9404 11.1778 13.7349 11.0997C13.5293 11.0216 13.3648 10.9824 13.2004 10.9434C13.0358 10.9043 12.8713 10.8261 12.7069 10.7871C12.5015 10.709 12.3369 10.6698 12.2137 10.5917C12.0902 10.5136 11.9259 10.4745 11.7614 10.3964C11.5969 10.3183 11.4736 10.2401 11.3502 10.162C11.2268 10.0839 11.1036 9.96664 11.0213 9.88854C10.8979 9.77128 10.8157 9.65416 10.7335 9.53689C10.6513 9.41963 10.569 9.26345 10.5279 9.14619C10.4457 8.98989 10.4045 8.83358 10.4045 8.67742C10.3634 8.52111 10.3634 8.32575 10.3634 8.13041C10.3634 7.349 10.6101 6.68489 11.1447 6.13788C11.6792 5.59087 12.3781 5.2784 13.3239 5.20017L13.3238 3.94986C13.3238 3.83261 13.4471 3.71548 13.5704 3.71548H14.7629C14.8862 3.71548 15.0095 3.83274 15.0095 3.94986V5.23924C15.5028 5.3565 15.9963 5.51268 16.4896 5.70801C16.9009 5.86432 17.2298 6.09871 17.5586 6.29406C17.6821 6.37214 17.6821 6.52844 17.5998 6.60667L16.654 7.73973C16.5718 7.81781 16.4484 7.85698 16.325 7.77877C15.5437 7.31 14.8038 7.03641 14.0636 7.03641C13.6525 7.03641 13.3234 7.1145 13.1178 7.2708C12.9123 7.42711 12.7889 7.62247 12.7889 7.89589C12.7889 8.16933 12.9123 8.36466 13.159 8.56002C13.4056 8.71632 13.8579 8.91167 14.4336 9.10703C14.7212 9.18511 14.9269 9.26333 15.1325 9.30237C15.338 9.38045 15.5436 9.41963 15.7492 9.49772C15.9548 9.57581 16.1603 9.65402 16.3248 9.73211C16.4894 9.8102 16.6539 9.88842 16.8182 10.0055C16.9827 10.1228 17.1471 10.2009 17.2293 10.3182C17.3528 10.4354 17.4349 10.5526 17.5584 10.6698C17.6817 10.8261 17.7639 10.9433 17.805 11.0996C17.846 11.2559 17.9283 11.4122 17.9695 11.6075C18.0105 11.8029 18.0105 11.9982 18.0105 12.2326C18.0105 13.053 17.7639 13.7173 17.2293 14.2251C16.6948 14.7331 15.9959 15.0846 15.0501 15.2019V16.2959C15.0501 16.4131 14.9267 16.5303 14.8034 16.5303H13.611C13.4877 16.5303 13.3643 16.413 13.3643 16.2959L13.3647 15.2801C12.2134 15.1238 11.1855 14.6551 10.3221 13.8736C10.1165 13.7955 10.1166 13.6782 10.1989 13.561Z" fill="white"/>
</g>
<defs>
<clipPath id="clip0_1_10811">
<rect width="28" height="37.7391" fill="white" transform="translate(0 0.628906)"/>
</clipPath>
</defs>
</svg>
