<svg width="38" height="25" viewBox="0 0 38 25" fill="none" xmlns="http://www.w3.org/2000/svg">
<g clip-path="url(#clip0_1_10783)">
<path d="M36.5439 10.3872C36.5439 12.4887 34.8402 14.1923 32.7387 14.1923C30.6372 14.1923 28.9336 12.4888 28.9336 10.3872C28.9336 8.28567 30.6372 6.58203 32.7387 6.58203C34.8402 6.58203 36.5439 8.28575 36.5439 10.3872Z" fill="white"/>
<path d="M32.7407 15.4531C30.3346 15.4531 28.2554 17.0672 27.6484 19.3831V19.4606V23.5584H38.0008V20.7132C38.0008 17.812 35.6418 15.4531 32.7407 15.4531Z" fill="white"/>
<path d="M5.26008 15.4531C2.35889 15.4531 0 17.812 0 20.7132V23.5584H10.3523V19.4606V19.3831C9.74963 17.0673 7.66632 15.4531 5.26008 15.4531Z" fill="white"/>
<path d="M9.06345 10.3872C9.06345 12.4887 7.35988 14.1923 5.25829 14.1923C3.15677 14.1923 1.45312 12.4888 1.45312 10.3872C1.45312 8.28567 3.15683 6.58203 5.25829 6.58203C7.35981 6.58203 9.06345 8.28575 9.06345 10.3872Z" fill="white"/>
<path d="M18.9998 12.0742C14.9278 12.0742 11.6133 15.3886 11.6133 19.4607V23.5586H26.3863V19.4607C26.3863 15.3887 23.072 12.0742 18.9998 12.0742Z" fill="white"/>
<path d="M24.4065 5.40643C24.4065 8.39223 21.986 10.8129 19.0001 10.8129C16.0141 10.8129 13.5936 8.39231 13.5936 5.40643C13.5936 2.42049 16.0141 0 19.0001 0C21.986 0 24.4065 2.42056 24.4065 5.40643Z" fill="white"/>
</g>
<defs>
<clipPath id="clip0_1_10783">
<rect width="38" height="24.5882" fill="white"/>
</clipPath>
</defs>
</svg>
